<?xml version="1.0"?>
<svg xmlns="http://www.w3.org/2000/svg" xmlns:xlink="http://www.w3.org/1999/xlink" xmlns:svgjs="http://svgjs.com/svgjs" version="1.1" width="512" height="512" x="0" y="0" viewBox="0 0 512 512" style="enable-background:new 0 0 512 512" xml:space="preserve" class=""><g><g xmlns="http://www.w3.org/2000/svg"><path d="m320 48v128h-64v-16a16 16 0 0 0 -32 0v16h-32v-128z" fill="#fb8122" data-original="#57a4ff" style="" class=""/><g fill="#004fac"><path d="m352.97 231.01a24.046 24.046 0 0 0 -25.8-5.33 24.014 24.014 0 0 0 -34.93-14.6 24.727 24.727 0 0 0 -3.27-4.07 24.045 24.045 0 0 0 -24.97-5.64v-17.37h56a8 8 0 0 0 8-8v-128a8 8 0 0 0 -8-8h-128a8 8 0 0 0 -8 8v128a8 8 0 0 0 8 8h24v68.68c-.07-.13-.13-.26-.21-.38a24 24 0 0 0 -41.65 23.87l42.95 80.18a7.982 7.982 0 0 0 1.49 1.98l13.54 13.06-.12 100.6a8.006 8.006 0 0 0 8 8.01h96a8 8 0 0 0 8-8v-100.69l13.66-13.65a8.008 8.008 0 0 0 2.34-5.66v-104a23.924 23.924 0 0 0 -7.03-16.99zm-152.97-63.01v-112h112v112h-48v-8a24 24 0 0 0 -48 0v8zm144 180.69-13.66 13.65a8.008 8.008 0 0 0 -2.34 5.66v96h-79.99l.11-95.99a8 8 0 0 0 -2.44-5.76l-15.08-14.56-42.41-79.18-.12-.21a8.033 8.033 0 0 1 2.94-10.95 7.868 7.868 0 0 1 3.98-1.07 8.031 8.031 0 0 1 6.84 3.84l15.02 29.97a8 8 0 0 0 15.15-3.58v-126.51a8 8 0 1 1 16 0v104a8 8 0 0 0 16 0v-40a8.011 8.011 0 0 1 8-8 7.989 7.989 0 0 1 8 8v40a8 8 0 0 0 16 0v-32a8.011 8.011 0 0 1 8-8 7.989 7.989 0 0 1 8 8v32a8 8 0 0 0 16 0v-16a8.011 8.011 0 0 1 8-8 7.989 7.989 0 0 1 8 8z" fill="#282523" data-original="#004fac" style="" class=""/><path d="m144 40h-128a8 8 0 0 0 -8 8v128a8 8 0 0 0 8 8h128a8 8 0 0 0 8-8v-128a8 8 0 0 0 -8-8zm-8 128h-112v-112h112z" fill="#282523" data-original="#004fac" style="" class=""/><path d="m496 40h-128a8 8 0 0 0 -8 8v128a8 8 0 0 0 8 8h128a8 8 0 0 0 8-8v-128a8 8 0 0 0 -8-8zm-8 128h-112v-112h112z" fill="#282523" data-original="#004fac" style="" class=""/></g></g></g></svg>
