<svg width="800" height="600" xmlns="http://www.w3.org/2000/svg">
 <!-- Created with Method Draw - http://github.com/duopixel/Method-Draw/ -->

 <g>
  <title>background</title>
  <rect fill="#fff" id="canvas_background" height="602" width="802" y="-1" x="-1"/>
  <g display="none" overflow="visible" y="0" x="0" height="100%" width="100%" id="canvasGrid">
   <rect fill="url(#gridpattern)" stroke-width="0" y="0" x="0" height="100%" width="100%"/>
  </g>
 </g>
 <g>
  <title>Layer 1</title>

  <metadata transform="matrix(0.09330383073019277,0,0,0.09330383073019277,0,0) " id="svg_9">image/svg+xml</metadata>
  <g stroke="null" id="svg_11">
   <g stroke="null" transform="matrix(1.1293980705999835,0,0,1.1293980705999835,-0.000017785735508153494,-0.0000023467291133961446) " id="svg_7">
    <path fill="#fbb121" stroke-width="0.26458" id="svg_8" d="m292.83546,527.78561c4.79901,-24.74648 10.24255,-49.36596 15.18708,-74.08334c1.23614,-6.18067 2.57414,-12.34017 3.81,-18.52083c0.28655,-1.4314 0.42149,-5.51656 1.72429,-6.33942c1.31578,-0.82814 5.54752,0.44979 7.05988,0.73025c5.76368,1.07686 11.64564,1.30704 17.4625,1.86002c12.11025,1.15359 25.35767,0.14288 37.30625,-1.94998c3.95817,-0.69321 8.05127,-0.93133 11.90625,-2.23837l3.43959,16.13958l6.48493,31.75l7.32632,35.45417l3.38666,16.93333c7.8449,-0.34131 16.66611,-3.97139 24.07709,-6.43731c19.02354,-6.33677 37.39621,-14.61558 54.50417,-25.09838c80.99161,-49.61995 132.22552,-142.17121 128.04775,-237.54556c-1.35466,-30.94804 -7.14904,-61.59235 -18.61608,-90.4875c-35.58646,-89.68026 -118.76882,-154.29556 -214.47126,-166.08302c-32.11804,-3.95596 -64.91155,-1.53085 -96.30834,6.30815c-29.40209,7.34095 -57.11031,20.2233 -82.28542,37.0082c-22.36338,14.91033 -42.74476,33.81454 -59.23598,55.03333c-22.57451,29.04597 -39.6335,61.97178 -49.00922,97.63126c-26.38824,100.3644 7.99203,210.82793 88.93062,276.68537c32.24345,26.23609 69.08853,43.34934 109.27292,53.25005m102.65834,-455.34793c-2.60879,13.84724 -1.62719,27.32935 -1.5875,41.275c5.98752,-7.21386 11.11514,-14.41767 17.99166,-20.91134c2.33892,-2.2098 5.38957,-5.82454 8.46667,-6.86991c-8.47725,32.75674 -9.50648,66.90255 4.84452,98.16043c4.71223,10.26557 11.12044,19.8284 17.88319,28.83958c3.59304,4.79002 7.85283,9.20115 11.02519,14.2875c11.57023,18.54518 18.20069,39.878 19.15319,61.64792c0.5371,12.24491 -1.57692,25.15394 -5.3684,36.77708c-4.40002,13.48581 -10.91142,26.07998 -19.62679,37.30625c-32.90094,42.37566 -92.88728,59.26931 -143.00465,40.36748c-18.40707,-6.94002 -35.31288,-18.40707 -48.03802,-33.48832c-9.56072,-11.3321 -16.82538,-24.51629 -21.35002,-38.62916c-1.74864,-5.45571 -2.67071,-11.10192 -3.96373,-16.66875c-7.75917,-33.40629 -5.62901,-67.27613 8.11186,-98.95417c13.12228,-30.25166 34.22677,-57.87257 58.62532,-79.94914c21.84242,-19.76359 44.53599,-38.11139 70.64376,-52.06234c6.2521,-3.34089 12.23433,-7.55729 19.05,-9.6557c2.2516,-0.69321 4.75721,-2.17144 7.14375,-1.47241m-19.57917,525.99168l-8.73125,0l0,12.43541l8.73125,0l0,43.12709l16.40417,0l0,-43.12709l14.2875,0l0,-12.43541l-14.55209,0c0,-2.19075 -0.254,-4.53232 0.56092,-6.61459c2.33627,-5.969 9.03552,-4.22275 13.462,-2.38125c1.76742,-3.35491 3.67771,-8.15181 4.23333,-11.90625c-9.67052,-4.59316 -24.48189,-4.30477 -30.92979,5.55625c-3.00037,4.58788 -3.46604,10.01977 -3.46604,15.34584m-146.57917,-18.52084l0,74.08334l17.19791,0l0,-20.6375c11.88747,0 24.81713,1.55045 35.45417,-4.88157c14.38381,-8.6995 15.63847,-32.18127 1.85209,-42.1005c-8.70109,-6.26004 -19.08414,-6.46377 -29.36876,-6.46377l-25.13541,0m17.19791,39.6875l0,-25.92916c3.98225,0 7.94121,0.16404 11.90625,0.26193c4.31721,0.10584 8.58521,-0.13493 12.43542,2.24367c7.43003,4.58788 7.23371,17.33021 -0.52916,21.48681c-6.73048,3.60098 -16.43354,1.93675 -23.81251,1.93675m82.02084,-23.17221c-5.72743,0.75407 -10.98471,2.01348 -15.875,5.27315c-14.56399,9.7155 -16.53937,32.34796 -3.9452,44.577c7.3451,7.13317 18.11734,9.38742 28.02228,8.17033c4.25821,-0.52123 8.48017,-1.85737 12.17084,-4.05077c14.17373,-8.43227 18.25889,-28.48504 8.61748,-41.91c-6.31296,-8.7921 -18.30361,-13.462 -28.9904,-12.05971m85.98959,0.68263l0,25.13542c0,6.09864 -0.29104,12.39573 1.68275,18.25625c2.87337,8.54339 10.62302,13.14714 19.21933,14.06789c3.32846,0.35454 6.51669,0.14552 9.78959,-0.57679c4.68841,-1.03717 7.61735,-3.96346 11.37708,-6.61194l0,6.61459l15.61042,0l0,-56.88542l-16.40417,0l0,22.75417c0,4.63285 0.29104,9.76312 -1.84415,14.02291c-3.55864,7.09348 -15.00716,9.53823 -20.24327,2.91042c-3.09298,-3.91319 -2.78341,-9.06198 -2.78341,-13.75833l0,-25.92917l-16.40417,0m-83.60834,12.51479c18.41976,-1.73037 20.96029,29.81854 2.91042,31.62565c-2.62652,0.26193 -5.4737,0.127 -7.9375,-0.86784c-8.93154,-3.60891 -11.70252,-16.38564 -6.58786,-24.2226c2.65932,-4.07458 6.88842,-6.09071 11.61494,-6.53521z"/>
   </g>
  </g>
 </g>
</svg>