<?xml version="1.0" encoding="UTF-8" standalone="no"?>
<svg
   xmlns:dc="http://purl.org/dc/elements/1.1/"
   xmlns:cc="http://creativecommons.org/ns#"
   xmlns:rdf="http://www.w3.org/1999/02/22-rdf-syntax-ns#"
   xmlns:svg="http://www.w3.org/2000/svg"
   xmlns="http://www.w3.org/2000/svg"
   xmlns:sodipodi="http://sodipodi.sourceforge.net/DTD/sodipodi-0.dtd"
   xmlns:inkscape="http://www.inkscape.org/namespaces/inkscape"
   width="528.90936mm"
   height="654.75714mm"
   viewBox="0 0 528.90937 654.75714"
   version="1.1"
   id="svg8"
   inkscape:version="1.0.1 (3bc2e813f5, 2020-09-07)"
   sodipodi:docname="pofufinal.svg">
  <defs
     id="defs2" />
  <sodipodi:namedview
     id="base"
     pagecolor="#000000"
     bordercolor="#666666"
     borderopacity="1.0"
     inkscape:pageopacity="0"
     inkscape:pageshadow="2"
     inkscape:zoom="0.125"
     inkscape:cx="1123.0458"
     inkscape:cy="1461.2997"
     inkscape:document-units="mm"
     inkscape:current-layer="layer1"
     inkscape:document-rotation="0"
     showgrid="false"
     fit-margin-top="0"
     fit-margin-left="0"
     fit-margin-right="0"
     fit-margin-bottom="0"
     inkscape:window-width="1267"
     inkscape:window-height="729"
     inkscape:window-x="83"
     inkscape:window-y="0"
     inkscape:window-maximized="0" />
  <metadata
     id="metadata5">
    <rdf:RDF>
      <cc:Work
         rdf:about="">
        <dc:format>image/svg+xml</dc:format>
        <dc:type
           rdf:resource="http://purl.org/dc/dcmitype/StillImage" />
        <dc:title></dc:title>
      </cc:Work>
    </rdf:RDF>
  </metadata>
  <g
     inkscape:label="Layer 1"
     inkscape:groupmode="layer"
     id="layer1"
     transform="translate(-416.2451,215.77444)">
    <path
       style="fill:#fbb121;stroke:none;stroke-width:0.264583"
       d="m 623.19409,312.01117 c 4.79901,-24.74648 10.24255,-49.36596 15.18708,-74.08334 1.23614,-6.18067 2.57414,-12.34017 3.81,-18.52083 0.28655,-1.4314 0.42149,-5.51656 1.72429,-6.33942 1.31578,-0.82814 5.54752,0.44979 7.05988,0.73025 5.76368,1.07686 11.64564,1.30704 17.4625,1.86002 12.11025,1.15359 25.35767,0.14288 37.30625,-1.94998 3.95817,-0.69321 8.05127,-0.93133 11.90625,-2.23837 l 3.43959,16.13958 6.48493,31.75 7.32632,35.45417 3.38666,16.93333 c 7.8449,-0.34131 16.66611,-3.97139 24.07709,-6.43731 19.02354,-6.33677 37.39621,-14.61558 54.50417,-25.09838 C 897.86071,230.59094 949.09462,138.03968 944.91685,42.665334 943.56219,11.717286 937.76781,-18.92702 926.30077,-47.822167 890.71431,-137.50243 807.53195,-202.11773 711.82951,-213.90519 c -32.11804,-3.95596 -64.91155,-1.53085 -96.30834,6.30815 -29.40209,7.34095 -57.11031,20.2233 -82.28542,37.0082 -22.36338,14.91033 -42.74476,33.81454 -59.23598,55.03333 -22.57451,29.045968 -39.6335,61.971777 -49.00922,97.63126 -26.38824,100.364397 7.99203,210.82793 88.93062,276.68537 32.24345,26.23609 69.08853,43.34934 109.27292,53.25005 m 102.65834,-455.34793 c -2.60879,13.84724 -1.62719,27.32935 -1.5875,41.275 5.98752,-7.21386 11.11514,-14.41767 17.99166,-20.91134 2.33892,-2.2098 5.38957,-5.82454 8.46667,-6.86991 -8.47725,32.756745 -9.50648,66.902552 4.84452,98.160427 4.71223,10.265569 11.12044,19.828404 17.88319,28.8395838 3.59304,4.790016 7.85283,9.2011496 11.02519,14.2874992 11.57023,18.545176 18.20069,39.878001 19.15319,61.647918 0.5371,12.244917 -1.57692,25.153938 -5.3684,36.777082 -4.40002,13.48581 -10.91142,26.07998 -19.62679,37.30625 -32.90094,42.37566 -92.88728,59.26931 -143.00465,40.36748 -18.40707,-6.94002 -35.31288,-18.40707 -48.03802,-33.48832 -9.56072,-11.3321 -16.82538,-24.51629 -21.35002,-38.62916 -1.74864,-5.45571 -2.67071,-11.10192 -3.96373,-16.668748 -7.75917,-33.406292 -5.62901,-67.276134 8.11186,-98.95416819 13.12228,-30.25166481 34.22677,-57.87257781 58.62532,-79.94914681 21.84242,-19.763582 44.53599,-38.111387 70.64376,-52.062337 6.2521,-3.34089 12.23433,-7.55729 19.05,-9.6557 2.2516,-0.69321 4.75721,-2.17144 7.14375,-1.47241 m -19.57917,525.99168 h -8.73125 v 12.43541 h 8.73125 v 43.12709 h 16.40417 v -43.12709 h 14.2875 v -12.43541 h -14.55209 c 0,-2.19075 -0.254,-4.53232 0.56092,-6.61459 2.33627,-5.969 9.03552,-4.22275 13.462,-2.38125 1.76742,-3.35491 3.67771,-8.15181 4.23333,-11.90625 -9.67052,-4.59316 -24.48189,-4.30477 -30.92979,5.55625 -3.00037,4.58788 -3.46604,10.01977 -3.46604,15.34584 M 559.69409,364.13408 v 74.08334 H 576.892 v -20.6375 c 11.88747,0 24.81713,1.55045 35.45417,-4.88157 14.38381,-8.6995 15.63847,-32.18127 1.85209,-42.1005 -8.70109,-6.26004 -19.08414,-6.46377 -29.36876,-6.46377 h -25.13541 m 17.19791,39.6875 v -25.92916 c 3.98225,0 7.94121,0.16404 11.90625,0.26193 4.31721,0.10584 8.58521,-0.13493 12.43542,2.24367 7.43003,4.58788 7.23371,17.33021 -0.52916,21.48681 -6.73048,3.60098 -16.43354,1.93675 -23.81251,1.93675 m 82.02084,-23.17221 c -5.72743,0.75407 -10.98471,2.01348 -15.875,5.27315 -14.56399,9.7155 -16.53937,32.34796 -3.9452,44.577 7.3451,7.13317 18.11734,9.38742 28.02228,8.17033 4.25821,-0.52123 8.48017,-1.85737 12.17084,-4.05077 14.17373,-8.43227 18.25889,-28.48504 8.61748,-41.91 -6.31296,-8.7921 -18.30361,-13.462 -28.9904,-12.05971 m 85.98959,0.68263 v 25.13542 c 0,6.09864 -0.29104,12.39573 1.68275,18.25625 2.87337,8.54339 10.62302,13.14714 19.21933,14.06789 3.32846,0.35454 6.51669,0.14552 9.78959,-0.57679 4.68841,-1.03717 7.61735,-3.96346 11.37708,-6.61194 v 6.61459 H 802.5816 V 381.332 h -16.40417 v 22.75417 c 0,4.63285 0.29104,9.76312 -1.84415,14.02291 -3.55864,7.09348 -15.00716,9.53823 -20.24327,2.91042 -3.09298,-3.91319 -2.78341,-9.06198 -2.78341,-13.75833 V 381.332 h -16.40417 m -83.60834,12.51479 c 18.41976,-1.73037 20.96029,29.81854 2.91042,31.62565 -2.62652,0.26193 -5.4737,0.127 -7.9375,-0.86784 -8.93154,-3.60891 -11.70252,-16.38564 -6.58786,-24.2226 2.65932,-4.07458 6.88842,-6.09071 11.61494,-6.53521 z"
       id="path24" />
  </g>
</svg>
